<?xml version="1.0" standalone="no"?>
<!DOCTYPE svg PUBLIC "-//W3C//DTD SVG 20010904//EN"
 "http://www.w3.org/TR/2001/REC-SVG-20010904/DTD/svg10.dtd">
<svg version="1.0" xmlns="http://www.w3.org/2000/svg"
 width="1500.000000pt" height="1500.000000pt" viewBox="0 0 1500.000000 1500.000000"
 preserveAspectRatio="xMidYMid meet">

<g transform="translate(0.000000,1500.000000) scale(0.100000,-0.100000)"
fill="#000000" stroke="none">
<path d="M4557 10605 c-417 -84 -786 -160 -821 -169 -79 -22 -158 -67 -186
-106 -25 -35 -80 -249 -80 -310 0 -43 20 -95 57 -152 l27 -39 21 58 c32 83 36
93 44 93 4 0 -4 -43 -17 -96 -25 -95 -25 -95 -6 -115 20 -20 20 -19 44 75 l23
95 28 -37 c15 -20 25 -41 22 -46 -4 -5 -2 -6 4 -3 5 3 104 -116 218 -266 115
-150 333 -432 485 -627 152 -195 336 -434 410 -530 74 -96 247 -321 385 -500
138 -179 404 -523 590 -764 l338 -440 -34 -98 -34 -98 21 -21 22 -21 31 81
c17 44 31 86 31 93 1 8 7 5 15 -6 17 -23 15 -40 -20 -125 -31 -74 -30 -79 39
-163 116 -140 266 -216 446 -225 81 -4 110 -1 195 22 55 14 111 28 124 31 13
3 35 11 50 18 14 7 355 122 756 256 402 133 749 253 771 266 60 34 90 75 152
204 70 146 74 198 24 303 -40 87 -38 83 -398 502 -166 193 -506 586 -755 875
-249 289 -528 613 -620 720 -812 943 -1073 1241 -1124 1282 -121 98 -243 139
-411 137 -99 -1 -181 -15 -867 -154z m1038 110 c85 -22 170 -71 244 -140 35
-33 166 -179 290 -324 124 -146 247 -289 273 -318 43 -47 46 -55 37 -77 -7
-14 -8 -30 -3 -39 14 -25 343 -410 1693 -1982 217 -253 410 -480 428 -504 52
-68 74 -118 75 -171 2 -63 -32 -109 -104 -143 -29 -14 -240 -86 -468 -160
-228 -75 -581 -190 -785 -256 -203 -66 -395 -126 -425 -132 -30 -7 -91 -9
-138 -6 -72 4 -96 11 -157 41 -94 48 -164 121 -360 371 -342 438 -1113 1429
-1355 1740 -418 537 -816 1047 -977 1251 -83 105 -165 213 -182 240 -32 53
-55 131 -40 140 5 3 9 15 9 27 0 19 -3 18 -20 -10 -11 -18 -22 -33 -24 -33 -6
0 -1 26 10 55 6 17 5 18 -7 7 -8 -7 -14 -18 -14 -24 0 -6 -6 -13 -12 -15 -22
-8 -14 24 13 56 33 40 94 75 164 94 30 9 180 41 334 72 263 53 280 55 297 39
18 -16 29 -15 187 15 210 41 201 38 208 65 4 19 16 25 67 35 34 6 161 31 282
55 245 49 359 57 460 31z m2395 -4085 c0 -5 -2 -10 -4 -10 -3 0 -8 5 -11 10
-3 6 -1 10 4 10 6 0 11 -4 11 -10z m-480 -180 c0 -5 -2 -10 -4 -10 -3 0 -8 5
-11 10 -3 6 -1 10 4 10 6 0 11 -4 11 -10z"/>
<path d="M4296 10442 c-3 -5 7 -8 22 -7 15 2 19 0 10 -2 -20 -5 -24 -28 -6
-39 8 -5 9 -2 5 9 -3 10 -2 17 4 17 5 0 12 -7 15 -15 9 -23 27 -18 21 6 -4 16
-3 18 9 8 9 -8 14 -8 14 -1 0 24 -81 45 -94 24z"/>
<path d="M3666 10308 c3 -5 10 -6 15 -3 13 9 11 12 -6 12 -8 0 -12 -4 -9 -9z"/>
<path d="M3887 9548 c-2 -7 18 -40 45 -73 26 -33 48 -66 48 -74 0 -17 -2 -15
-59 57 -60 78 -52 34 10 -49 28 -38 55 -69 59 -69 9 0 40 56 40 72 0 10 -69
106 -95 131 -20 20 -42 22 -48 5z"/>
<path d="M4112 9256 c-23 -29 -25 -38 -6 -33 15 5 38 -19 112 -117 63 -84 92
-131 92 -149 0 -30 -8 -34 -30 -14 -8 6 -6 2 4 -10 11 -13 27 -23 37 -23 25 0
52 44 44 70 -7 21 -146 212 -187 257 -24 26 -54 35 -66 19z"/>
<path d="M4130 9126 c0 -2 8 -10 18 -17 15 -13 16 -12 3 4 -13 16 -21 21 -21
13z"/>
<path d="M4170 9076 c0 -2 8 -10 18 -17 15 -13 16 -12 3 4 -13 16 -21 21 -21
13z"/>
<path d="M4230 8996 c0 -2 8 -10 18 -17 15 -13 16 -12 3 4 -13 16 -21 21 -21
13z"/>
<path d="M4395 8879 c-4 -6 0 -16 8 -22 23 -19 185 -232 199 -262 10 -23 10
-29 -6 -40 -17 -13 -17 -14 2 -24 36 -19 71 34 53 80 -10 27 -175 247 -199
267 -19 15 -49 16 -57 1z"/>
<path d="M5442 7518 c-15 -15 -15 -47 1 -74 7 -12 81 -112 166 -223 100 -130
161 -201 173 -201 22 0 34 43 21 73 -12 25 -311 418 -327 429 -15 10 -20 10
-34 -4z m178 -204 c84 -108 148 -199 142 -203 -5 -3 -11 -14 -13 -25 -6 -29
-299 360 -299 396 0 16 4 28 9 28 5 0 77 -88 161 -196z m167 -270 c-3 -3 -12
-4 -19 -1 -8 3 -5 6 6 6 11 1 17 -2 13 -5z"/>
<path d="M8590 5415 l0 -805 150 0 150 0 0 298 c0 326 6 377 57 453 48 73 157
117 241 98 61 -13 115 -53 156 -112 59 -87 66 -134 66 -454 l0 -283 145 0 145
0 0 318 c0 354 -5 393 -66 520 -49 101 -134 187 -238 238 -75 37 -86 39 -185
42 -123 4 -190 -14 -272 -73 l-49 -35 0 300 0 300 -150 0 -150 0 0 -805z"/>
<path d="M5531 6169 c-46 -28 -68 -56 -80 -104 -28 -110 48 -205 165 -205 93
0 158 68 158 165 0 126 -138 208 -243 144z"/>
<path d="M746 6143 c10 -16 134 -201 276 -412 l258 -384 0 -369 0 -368 165 0
165 0 0 365 0 364 275 410 c151 225 275 412 275 415 0 3 -89 6 -197 6 l-198 0
-155 -235 c-85 -129 -158 -235 -161 -235 -3 0 -76 106 -162 235 l-157 235
-201 0 -201 0 18 -27z"/>
<path d="M7380 5390 l0 -780 165 0 165 0 0 315 0 315 184 0 c101 0 208 5 237
10 81 15 174 65 233 125 224 228 162 612 -122 752 l-76 38 -393 3 -393 3 0
-781z m699 465 c102 -52 120 -178 37 -261 -50 -50 -84 -57 -276 -52 l-125 3
-3 163 -2 162 170 0 c131 0 178 -3 199 -15z"/>
<path d="M2646 5719 c-72 -18 -179 -82 -242 -145 -139 -142 -196 -365 -144
-568 37 -144 111 -252 228 -329 96 -64 173 -88 287 -88 144 0 235 29 307 99
40 38 39 39 58 -35 l11 -43 129 0 130 0 0 545 0 545 -129 0 -129 0 -12 -37
c-6 -21 -13 -44 -16 -51 -3 -9 -19 -1 -50 27 -72 63 -138 84 -274 87 -63 2
-132 -1 -154 -7z m295 -275 c55 -18 110 -71 141 -139 33 -72 32 -218 -1 -293
-44 -98 -137 -155 -256 -155 -56 -1 -80 4 -120 25 -111 58 -169 154 -169 278
0 89 25 154 82 213 85 88 192 112 323 71z"/>
<path d="M3840 5717 c-120 -34 -213 -108 -258 -205 -23 -49 -27 -70 -27 -147
0 -106 17 -147 88 -212 68 -63 153 -99 277 -118 58 -9 120 -36 144 -64 18 -20
19 -23 3 -56 -21 -44 -57 -67 -115 -73 -65 -6 -125 12 -165 51 l-35 32 -98
-47 c-55 -26 -103 -49 -108 -51 -19 -6 16 -66 64 -111 268 -250 770 -101 770
229 0 179 -151 303 -413 341 -26 3 -62 16 -80 28 -26 18 -33 29 -35 63 -3 35
1 44 28 67 55 46 153 31 197 -30 l20 -27 111 37 c130 44 131 46 75 129 -73
108 -180 166 -318 173 -47 2 -98 -1 -125 -9z"/>
<path d="M4758 5711 c-117 -38 -198 -106 -244 -205 -35 -75 -34 -201 2 -274
47 -94 148 -156 311 -192 107 -23 120 -27 156 -52 50 -35 27 -102 -47 -133
-73 -31 -172 -9 -225 48 l-23 26 -110 -55 -109 -55 23 -41 c61 -109 223 -188
388 -188 136 0 237 38 326 122 75 71 104 133 104 223 0 187 -100 282 -359 341
-62 14 -121 30 -131 37 -47 29 -50 88 -5 133 45 45 147 28 194 -32 l20 -26
113 37 c62 21 115 39 116 41 2 1 -5 22 -16 47 -73 165 -298 257 -484 198z"/>
<path d="M6443 5711 c-67 -23 -122 -61 -159 -111 -16 -22 -32 -40 -35 -40 -3
0 -11 32 -18 70 l-13 70 -139 0 -139 0 0 -545 0 -545 155 0 155 0 0 318 0 318
26 52 c31 62 93 113 167 138 56 19 166 24 233 11 l41 -8 11 113 c17 166 20
155 -38 167 -76 16 -187 13 -247 -8z"/>
<path d="M10186 5715 c-187 -51 -343 -209 -400 -404 -10 -34 -16 -92 -16 -151
0 -111 15 -173 68 -275 69 -134 222 -253 367 -285 63 -14 197 -14 260 0 192
42 368 217 420 416 19 74 19 213 0 287 -52 201 -207 357 -410 413 -63 17 -224
17 -289 -1z m240 -270 c131 -53 205 -241 159 -401 -22 -77 -105 -163 -178
-183 -175 -49 -337 87 -337 283 0 223 178 373 356 301z"/>
<path d="M12561 5715 c-193 -54 -359 -229 -406 -428 -71 -299 123 -599 440
-682 88 -23 260 -21 359 5 77 19 207 78 209 94 0 4 -21 47 -47 96 l-48 88 -61
-19 c-34 -11 -101 -24 -149 -30 -104 -12 -177 -2 -248 37 -54 29 -140 110
-140 131 0 10 74 13 389 13 l388 0 7 46 c35 260 -90 502 -318 615 -86 42 -89
43 -204 46 -82 2 -133 -2 -171 -12z m249 -273 c48 -23 102 -80 129 -136 13
-26 21 -49 19 -52 -3 -2 -118 -3 -256 -2 l-252 3 24 50 c21 45 56 84 109 125
52 39 156 45 227 12z"/>
<path d="M13698 5711 c-117 -38 -198 -106 -244 -205 -35 -75 -34 -201 2 -274
47 -94 148 -156 311 -192 107 -23 120 -27 156 -52 50 -35 27 -102 -47 -133
-73 -31 -172 -9 -225 48 l-23 26 -110 -55 -109 -55 23 -41 c61 -109 223 -188
388 -188 136 0 237 38 326 122 75 71 104 133 104 223 0 187 -100 282 -359 341
-62 14 -121 30 -131 37 -47 29 -50 88 -5 133 45 45 147 28 194 -32 l20 -26
113 37 c62 21 115 39 116 41 2 1 -5 22 -16 47 -73 165 -298 257 -484 198z"/>
<path d="M5460 5155 l0 -545 150 0 150 0 0 545 0 545 -150 0 -150 0 0 -545z"/>
<path d="M11020 5155 l0 -545 149 0 150 0 3 343 c3 385 5 395 79 444 115 76
276 33 308 -82 7 -26 11 -160 11 -372 l0 -333 150 0 151 0 -3 393 c-3 276 -8
403 -16 429 -22 64 -89 154 -145 192 -86 58 -127 70 -262 70 -118 1 -121 0
-196 -35 l-77 -37 -17 39 -18 39 -134 0 -133 0 0 -545z"/>
</g>
</svg>
